<?xml version="1.0" encoding="UTF-8" standalone="no" ?>
<!DOCTYPE svg PUBLIC "-//W3C//DTD SVG 1.1//EN" "http://www.w3.org/Graphics/SVG/1.1/DTD/svg11.dtd">
<svg xmlns="http://www.w3.org/2000/svg" xmlns:xlink="http://www.w3.org/1999/xlink" version="1.1" width="200" height="300" viewBox="0 0 200 300" xml:space="preserve">
<desc>Created with Fabric.js 4.6.0</desc>
<defs>
</defs>
<g transform="matrix(2.06 0 0 2.06 57.96 299.81)" id="FUsYJ-sE4l2MLjG0ZuMII"  >
<path style="stroke: rgb(0,0,0); stroke-width: 1; stroke-dasharray: none; stroke-linecap: butt; stroke-dashoffset: 0; stroke-linejoin: miter; stroke-miterlimit: 4; fill: none; fill-rule: nonzero; opacity: 1;" vector-effect="non-scaling-stroke"  transform=" translate(0, 0)" d="M 0 -27.80868 C 15.35039 -27.80868 27.80868 -15.350389999999999 27.80868 0 C 27.80868 15.35039 15.350389999999999 27.80868 0 27.80868 C -15.35039 27.80868 -27.80868 15.350389999999999 -27.80868 0 C -27.80868 -15.35039 -15.350389999999999 -27.80868 0 -27.80868 z" stroke-linecap="round" />
</g>
<g transform="matrix(1 0 0 1 101.29 146.61)" id="VxPNQaZNSRfuDI8ENVUXb"  >
<path style="stroke: rgb(0,0,0); stroke-width: 1; stroke-dasharray: none; stroke-linecap: butt; stroke-dashoffset: 0; stroke-linejoin: miter; stroke-miterlimit: 4; fill: rgb(255,255,255); fill-opacity: 0; fill-rule: nonzero; opacity: 1;" vector-effect="non-scaling-stroke"  transform=" translate(0, 0)" d="M -43.32982 95.42286 L -43.32982 -74.13009000000001 L -43.32982 -95.42287000000002 L -13.7044 -95.42287000000002 L 43.32982 -95.42287000000002 L 43.32982 -73.74987000000002" stroke-linecap="round" />
</g>
<g transform="matrix(0.97 0 0 0.97 70.51 64.24)" id="Kn3d_gQNlLcaVwo1iNJh3"  >
<path style="stroke: rgb(0,0,0); stroke-width: 1; stroke-dasharray: none; stroke-linecap: butt; stroke-dashoffset: 0; stroke-linejoin: miter; stroke-miterlimit: 4; fill: rgb(255,255,255); fill-opacity: 0; fill-rule: nonzero; opacity: 1;" vector-effect="non-scaling-stroke"  transform=" translate(0, 0)" d="M -12.91157 13.17776 L 12.91157 -13.17775 z" stroke-linecap="round" />
</g>
<g transform="matrix(1.27 0 0 1.27 145.12 97.68)" id="Xxfk5YEGUVNVOgjd9eVTI"  >
<path style="stroke: rgb(0,0,0); stroke-width: 1; stroke-dasharray: none; stroke-linecap: butt; stroke-dashoffset: 0; stroke-linejoin: miter; stroke-miterlimit: 4; fill: none; fill-rule: nonzero; opacity: 1;" vector-effect="non-scaling-stroke"  transform=" translate(0, 0)" d="M 0 -19.35484 C 10.68387 -19.35484 19.35484 -10.683869999999999 19.35484 0 C 19.35484 10.68387 10.683869999999999 19.35484 0 19.35484 C -10.68387 19.35484 -19.35484 10.683869999999999 -19.35484 0 C -19.35484 -10.68387 -10.683869999999999 -19.35484 0 -19.35484 z" stroke-linecap="round" />
</g>
<g transform="matrix(1 0 0 1 145.12 156.82)" id="Pr_ThqK0z3VrUUVTMnNKM"  >
<path style="stroke: rgb(0,0,0); stroke-width: 1; stroke-dasharray: none; stroke-linecap: butt; stroke-dashoffset: 0; stroke-linejoin: miter; stroke-miterlimit: 4; fill: rgb(255,255,255); fill-opacity: 0; fill-rule: nonzero; opacity: 1;" vector-effect="non-scaling-stroke"  transform=" translate(0, 0)" d="M 0 -34.05449 L 0 34.054500000000004 z" stroke-linecap="round" />
</g>
<g transform="matrix(1 0 0 1 129.4 145.81)" id="G1-_U3Wb5eUfLs-jR4nAF"  >
<path style="stroke: rgb(0,0,0); stroke-width: 1; stroke-dasharray: none; stroke-linecap: butt; stroke-dashoffset: 0; stroke-linejoin: miter; stroke-miterlimit: 4; fill: rgb(255,255,255); fill-opacity: 0; fill-rule: nonzero; opacity: 1;" vector-effect="non-scaling-stroke"  transform=" translate(0, 0)" d="M 15.72069 -23.04226 L -15.72068 23.04226 z" stroke-linecap="round" />
</g>
<g transform="matrix(1 0 0 1 161.19 146.06)" id="RPC1ChhQpZ5d8-ZL6YrPS"  >
<path style="stroke: rgb(0,0,0); stroke-width: 1; stroke-dasharray: none; stroke-linecap: butt; stroke-dashoffset: 0; stroke-linejoin: miter; stroke-miterlimit: 4; fill: rgb(255,255,255); fill-opacity: 0; fill-rule: nonzero; opacity: 1;" vector-effect="non-scaling-stroke"  transform=" translate(0, 0)" d="M -15.56435 -23.29226 L 15.56435 23.29226 z" stroke-linecap="round" />
</g>
<g transform="matrix(1 0 0 1 132.33 216.21)" id="zTIWhWOzCR0AfQerQtd9N"  >
<path style="stroke: rgb(0,0,0); stroke-width: 1; stroke-dasharray: none; stroke-linecap: butt; stroke-dashoffset: 0; stroke-linejoin: miter; stroke-miterlimit: 4; fill: rgb(255,255,255); fill-opacity: 0; fill-rule: nonzero; opacity: 1;" vector-effect="non-scaling-stroke"  transform=" translate(0, 0)" d="M 12.79714 -25.32882 L -12.79714 25.32882 z" stroke-linecap="round" />
</g>
</svg>